<svg xml:space="preserve" style="max-height: 500px" viewBox="0 0 2706.7794 482.11489361702127" y="0px" x="0px" xmlns:xlink="http://www.w3.org/1999/xlink" xmlns="http://www.w3.org/2000/svg" id="Artwork" version="1.1" width="2706.7794" height="482.11489361702127">
<style type="text/css">
	.st0{fill:#FFFFFF;}
</style>
<g>
	<g>
		<g>
			<polygon points="3719.9,435.7 3604.8,102 3535,303.5 3466.2,291.7 3567.5,13.6 3641.5,13.6 3795.3,435.7" class="st0"/>
			
			<path style="visibility: hidden; opacity: 1;" data-index="1" d="M4237.5,443.4c-95.9,0-165.6-69.9-165.6-166.2c0-94.7,70.9-166.2,165-166.2c50.2,0,85.2,21.1,105.6,38.9&#10;&#9;&#9;&#9;&#9;l2.2,1.9l-22.7,63.4l-4.8-4.6c-10.2-9.8-38.2-32.5-78.5-32.5c-54.8,0-93.1,40.7-93.1,99.1c0,57.1,41.1,100.2,95.5,100.2&#10;&#9;&#9;&#9;&#9;c27.2,0,53.2-11.1,77.4-33.1l4.9-4.4l21.4,62.1l-2.2,1.9C4329.1,415.8,4292,443.4,4237.5,443.4z" class="st0"/>
			
			<rect height="435.7" width="73" class="st0" x="4726.3"/>
			<path style="visibility: hidden; opacity: 1;" data-index="3" d="M4854,435.7v-317h73v317H4854z M4890.2,91.4c-24.9,0-44.5-19.5-44.5-44.5s19.5-44.5,44.5-44.5&#10;&#9;&#9;&#9;&#9;c24.9,0,44.5,19.5,44.5,44.5S4915.1,91.4,4890.2,91.4z" class="st0"/>
			
			<path style="visibility: hidden; opacity: 1;" data-index="5" d="M5292.7,443.4c-96.8,0-164.4-67.9-164.4-165c0-95.4,66.4-167.4,154.4-167.4c94.1,0,152.6,63.5,152.6,165.6&#10;&#9;&#9;&#9;&#9;c0,5.3,0,10.9-0.6,16.4l-0.4,3.8h-231.5c3.1,49.1,39.2,81.7,91.2,81.7c47.9,0,72.9-28.8,81.5-41.2l2.6-3.7l49.2,36.9l-1.9,3.3&#10;&#9;&#9;&#9;&#9;C5418.5,385.5,5380.4,443.4,5292.7,443.4z M5360.7,244c-3.9-43-33.9-70.5-77.5-70.5c-41.5,0-72.3,28.1-77.9,70.5H5360.7z" class="st0"/>
		</g>
		<g>
			
		</g>
	</g>
	<polygon points="2962.1,339.1 2905.3,282.3 2962.1,225.5 2929.2,192.5 2872.3,249.3 2815.5,192.5 2782.5,225.5 &#10;&#9;&#9;2839.3,282.3 2782.5,339.1 2815.5,372.1 2872.3,315.3 2929.1,372.1" class="st0"/>
	<path style="visibility: visible; opacity: 1;" data-index="7" d="M1358.9,296.3c0,21.9,17.8,39.7,39.6,39.7h6.1v103.8l-3.9,0.1c-3.9,0.1-6.9,0.2-9,0.2&#10;&#9;&#9;c-22.9,0-44.8-5.4-65.1-16c-20.3-10.6-36.8-25.3-49.1-43.5c-15.5-23.3-23.4-54.5-23.4-92.8V80h103.3l-0.7,72.5h47v102h-45.4&#10;&#9;&#9;L1358.9,296.3 M473.2,143.5c82.8,0,150.1,67.3,150.1,150.1S556,443.7,473.2,443.7s-150.1-67.3-150.1-150.1&#10;&#9;&#9;C323.1,210.8,390.5,143.5,473.2,143.5 M473.2,243c-27.9,0-50.6,22.7-50.6,50.6s22.7,50.6,50.6,50.6c27.9,0,50.6-22.7,50.6-50.6&#10;&#9;&#9;S501.1,243,473.2,243z M0,293.2V13.9h98.2v138.3h0.1c16.6-6.1,34-9.2,51.8-9.2c82.8,0,150.1,67.3,150.1,150.1&#10;&#9;&#9;s-67.3,150.1-150.1,150.1C67.3,443.3,0,375.9,0,293.2 M150.1,242.6c-27.9,0-50.6,22.7-50.6,50.6s22.7,50.6,50.6,50.6&#10;&#9;&#9;s50.6-22.7,50.6-50.6C200.7,265.3,178,242.6,150.1,242.6z M649.1,310.3c0,74.8,60.9,135.7,135.7,135.7s135.7-60.9,135.7-135.7&#10;&#9;&#9;V158.5H817.6l0.1,157.7c0,18.2-14.8,32.9-32.9,32.9c-18.2,0-32.9-14.8-32.9-32.9V158.5H649L649.1,310.3 M2060.3,293.6&#10;&#9;&#9;c0,82.8-67.3,150.1-150.1,150.1s-150.1-67.3-150.1-150.1s67.3-150.1,150.1-150.1S2060.3,210.8,2060.3,293.6z M1960.8,293.6&#10;&#9;&#9;c0-27.9-22.7-50.6-50.6-50.6c-27.9,0-50.6,22.7-50.6,50.6s22.7,50.6,50.6,50.6c13.9,0,26.6-5.7,35.8-14.8&#10;&#9;&#9;C1955.1,320.2,1960.8,307.5,1960.8,293.6z M2258.3,310.2c0,18.2-14.8,32.9-32.9,32.9c-18.2,0-32.9-14.8-32.9-32.9V152.5h-102.9v149&#10;&#9;&#9;l0.1,2.7c0,74.8,60.9,135.7,135.7,135.7s135.7-60.9,135.7-135.7V152.4h-102.9L2258.3,310.2 M1084.7,146.3&#10;&#9;&#9;c-74.8,0-135.7,60.9-135.7,135.7v154.4h102.9l-0.1-160.3c0-18.2,14.8-32.9,32.9-32.9c18.2,0,32.9,14.8,32.9,32.9v160.3h102.9&#10;&#9;&#9;l-0.1-154.4C1220.4,207.2,1159.5,146.3,1084.7,146.3 M2592,285.4c-13.4-14-33.8-23.8-60.4-29.1c-9.3-2.1-16.7-3.8-22.4-5.1&#10;&#9;&#9;c-5.2-1.2-9-2.6-11.5-4.1c-2.8-1.6-3.4-2.8-3.6-3.1c-0.4-0.8-0.8-2.4-0.8-5.3c0-4.1,1.8-7.1,5.6-9.6c4.5-2.9,10.6-4.3,18.1-4.3&#10;&#9;&#9;c15.6,0,31.8,4.3,48.2,12.8l4.6,2.4l36.5-70.6l-5.2-2.2c-28-11.6-57.4-17.4-87.2-17.4c-18.3,0-35.2,2.3-50.3,6.9&#10;&#9;&#9;c-15.2,4.6-28.4,11.4-39.2,20c-10.9,8.7-19.4,19.5-25.2,32.1c-5.8,12.5-8.7,26.7-8.7,42.2c0,21.6,6.3,39,18.8,51.4&#10;&#9;&#9;c12.4,12.4,33.1,21.4,63.3,27.5c8.4,1.7,15.3,3.3,20.5,4.8c4.8,1.4,8.4,2.9,10.6,4.5c1.8,1.3,3.1,2.6,3.5,3.8c0.6,1.7,1,3.9,1,6.7&#10;&#9;&#9;c0,4.1-1.9,7.4-6,10.2c-4.6,3.2-10.7,4.8-18.2,4.8c-22.2,0-46.3-8.7-71.4-25.9l-4.8-3.3l-39,75.7l4.2,2.5&#10;&#9;&#9;c35.4,20.7,71.9,31.2,108.5,31.2c19,0,36.7-2.4,52.6-7.2c16-4.8,30-11.7,41.4-20.5c11.6-8.9,20.8-20,27.3-33&#10;&#9;&#9;c6.5-13.1,9.8-27.9,9.8-44.1C2612.5,317.9,2605.6,299.6,2592,285.4 M1732.6,328h-185c1.8,22,19,32.4,38.7,32.4&#10;&#9;&#9;c15.6,0,29.1-6.8,35.2-18.9l91.4,32.6c-26.7,41.8-73.2,69.7-126.5,69.7c-83,0-150.3-67.3-150.3-150.3s67.3-150.3,150.3-150.3&#10;&#9;&#9;s150.3,67.3,150.3,150.3C1736.7,305.4,1735.2,316.9,1732.6,328z M1627.8,262.5l-0.3-2.6c-1.8-18.8-18.4-31.4-41.2-31.4&#10;&#9;&#9;c-22.8,0-39.4,12.6-41.2,31.4l-0.3,2.6H1627.8z" class="st0"/>
</g>
</svg>